Coordinates
version=1
nRows=16
nColumns=33
inDegrees=yes

Units are S.I. units (second, meters, Newtons, ...)
Angles are in degrees.

endheader
time	ground_thorax_rot_x	ground_thorax_rot_y	ground_thorax_rot_z	ground_thorax_tx	ground_thorax_ty	ground_thorax_tz	clav_prot_r	clav_elev_r	scapula_abduction_r	scapula_elevation_r	scapula_upward_rot_r	scapula_winging_r	shoulder_elv_r	plane_of_elev_r	axial_rot_r	elbow_flexion_r	pro_sup_r	wrist_flex_r	wrist_dev_r	clav_prot_l	clav_elev_l	scapula_abduction_l	scapula_elevation_l	scapula_upward_rot_l	scapula_winging_l	shoulder_elv_l	plane_of_elev_l	axial_rot_l	elbow_flexion_l	pro_sup_l	wrist_flex_l	wrist_dev_l
      6.29000000	    -34.65408314	    -17.54896920	     29.51036414	   -192.13839428	    815.25791965	      9.40673368	      6.69179734	    -45.00000000	     39.35521163	    -45.00000000	    -32.46133954	   2058.24388582	  -2628.62541407	    146.67825758	   -118.14760448	   1093.28970200	     23.10973323	     19.30324979	      7.16174847	     14.71433478	     37.46934940	    -36.65090619	    -45.00000000	    -45.00000000	  -2076.23164724	    987.40233366	    134.05747303	   -179.99999979	    732.38137793	     31.93562874	      4.70199165	    -21.09755567
      6.30000000	    -34.55780098	    -18.07451561	     29.88935730	   -188.85934115	    814.06514214	      9.40979244	      6.75694716	    -45.00000000	     39.38213844	    -45.00000000	    -32.52712671	   2058.36832496	  -2628.90503162	    146.78165639	   -117.63730986	   1093.08918202	     20.60222971	     19.26093912	      7.62259903	     14.70680994	     37.47310079	    -36.61852609	    -45.00000000	    -45.00000000	  -2076.35785777	    987.32721793	    134.00345300	   -179.99999979	    732.16493630	     30.53594943	      5.15205870	    -21.07306720
      6.31000000	    -34.38009721	    -18.60285221	     30.36523888	   -185.50361964	    812.81890996	      9.40145296	      6.89377714	    -45.00000000	     39.39811523	    -45.00000000	    -32.65543150	   2058.47376936	  -2629.14352223	    146.87611952	   -117.13677179	   1092.90755190	     18.49829676	     19.19371242	      8.02734272	     14.67389708	     37.45933169	    -36.52777009	    -45.00000000	    -45.00000000	  -2076.46198203	    987.23528364	    133.85466267	   -179.99999979	    732.05710381	     29.29108111	      5.58748679	    -21.05354638
      6.32000000	    -34.27569603	    -19.13697316	     30.78597272	   -182.06590693	    811.52255373	      9.38168858	      6.96658853	    -45.00000000	     39.43644358	    -45.00000000	    -32.82413806	   2058.60868118	  -2629.43105672	    146.98357404	   -116.64921664	   1092.72737391	     16.71817802	     19.10980846	      8.44247076	     14.62626077	     37.42028261	    -36.55742368	    -45.00000000	    -45.00000000	  -2076.59427426	    987.08269633	    133.81200883	   -179.99999979	    731.87279752	     28.23172107	      5.99572967	    -20.99454134
      6.33000000	    -34.09534257	    -19.67278526	     31.25590621	   -178.56024394	    810.18717076	      9.35141629	      6.74286293	    -45.00000000	     39.36295626	    -45.00000000	    -32.76936642	   2058.75229085	  -2629.56566509	    147.16274776	   -116.19012163	   1092.63121940	     15.09725975	     19.02520047	      8.84252047	     14.81853559	     37.52694557	    -36.56958602	    -45.00000000	    -45.00000000	  -2076.91555345	    986.84794633	    133.99077333	   -179.99999979	    731.72226361	     27.21767652	      6.35334922	    -20.91033240
      6.34000000	    -33.91397541	    -20.32842373	     31.73705230	   -174.98199148	    808.81781374	      9.31200769	      7.00088974	    -45.00000000	     39.38973068	    -45.00000000	    -33.01795203	   2058.83610233	  -2629.84128485	    147.21347655	   -115.70497246	   1092.55284102	     13.88186634	     18.93853736	      9.12968440	     14.67803663	     37.46548100	    -36.37605234	    -45.00000000	    -45.00000000	  -2076.98874281	    986.76617941	    133.80819675	   -179.99999979	    731.58559363	     26.47728581	      6.76504370	    -20.85487283
      6.35000000	    -33.80532136	    -20.86452155	     32.16081246	   -171.33858004	    807.42235481	      9.26549805	      6.86756086	    -45.00000000	     39.34726890	    -45.00000000	    -33.14251438	   2059.03160828	  -2630.08869056	    147.37819303	   -115.33054250	   1092.47631291	     12.88334792	     18.84663121	      9.47054006	     14.79030973	     37.53321651	    -36.39886643	    -45.00000000	    -45.00000000	  -2077.26481708	    986.56358486	    133.91158313	   -179.99999979	    731.41342056	     25.90371996	      7.10058563	    -20.76565922
      6.36000000	    -33.59661485	    -21.49820492	     32.67173085	   -167.63888634	    806.00900633	      9.21456865	      6.91362185	    -45.00000000	     39.32768847	    -45.00000000	    -33.32432170	   2059.17703747	  -2630.31738350	    147.46741971	   -114.91474830	   1092.39063268	     12.15976107	     18.75146105	      9.72516965	     14.79764581	     37.54546936	    -36.25430249	    -45.00000000	    -45.00000000	  -2077.47910981	    986.41905528	    133.88860190	   -179.99999979	    731.27799612	     25.53420179	      7.43134009	    -20.69105886
      6.37000000	    -33.46492283	    -22.08523173	     33.12986112	   -163.88633203	    804.58156465	      9.16198782	      6.77702587	    -45.00000000	     39.29271581	    -45.00000000	    -33.46915100	   2059.33212228	  -2630.57376216	    147.63269787	   -114.53414908	   1092.33661591	     11.65349409	     18.65894970	     10.01806487	     14.85953295	     37.56303902	    -36.23430247	    -45.00000000	    -45.00000000	  -2077.77975357	    986.19586838	    134.03339529	   -179.99999979	    731.14601605	     25.37039362	      7.69634768	    -20.60466494
      6.38000000	    -33.32902786	    -22.68578812	     33.57123790	   -160.08946630	    803.14437772	      9.11053460	      6.74614414	    -45.00000000	     39.21431121	    -45.00000000	    -33.65394408	   2059.50564638	  -2630.84036707	    147.74902544	   -114.16234858	   1092.28154784	     11.36202072	     18.57418491	     10.23777404	     14.91564805	     37.58111193	    -36.16675474	    -45.00000000	    -45.00000000	  -2077.99809413	    986.01174172	    134.06522182	   -179.99999979	    731.01983856	     25.42094903	      7.95130810	    -20.53482299
      6.39000000	    -33.11662012	    -23.30241433	     34.10234278	   -156.25493269	    801.69859704	      9.06248707	      6.88909492	    -45.00000000	     39.19393743	    -45.00000000	    -33.96941774	   2059.66209660	  -2631.11029586	    147.86012379	   -113.76394081	   1092.21042661	     11.27137921	     18.49710632	     10.41330650	     14.85953415	     37.58001656	    -35.97733896	    -45.00000000	    -45.00000000	  -2078.21481022	    985.86786970	    133.99808579	   -179.99999979	    730.88570970	     25.68115617	      8.21670314	    -20.48700294
      6.40000000	    -32.92842606	    -23.99348907	     34.60992944	   -152.38575400	    800.24256593	      9.01935873	      7.04031161	    -45.00000000	     39.12406956	    -45.00000000	    -34.34111246	   2059.86942640	  -2631.40654993	    147.91545110	   -113.47233392	   1092.16837761	     11.32631725	     18.42620064	     10.58412617	     14.77915510	     37.56157688	    -35.70964601	    -45.00000000	    -45.00000000	  -2078.43549166	    985.77696427	    133.96287873	   -179.99999979	    730.71434904	     26.13969215	      8.46314603	    -20.44327827
      6.41000000	    -32.73752026	    -24.58489110	     35.13353819	   -148.48962738	    798.77587967	      8.98227744	      6.97902655	    -45.00000000	     39.02063462	    -45.00000000	    -34.73939614	   2060.05196499	  -2631.59947418	    148.04888133	   -113.25646136	   1092.11588797	     11.48523824	     18.35671074	     10.74519631	     14.84373570	     37.62273612	    -35.57712358	    -45.00000000	    -45.00000000	  -2078.73901120	    985.61112353	    134.03922393	   -179.99999979	    730.65115683	     26.77485692	      8.65955357	    -20.43370092
      6.42000000	    -32.51788641	    -25.17948214	     35.61423911	   -144.56414549	    797.29495591	      8.95099690	      6.92856187	    -45.00000000	     39.00532575	    -45.00000000	    -34.90339173	   2060.22948827	  -2631.91446057	    148.20436295	   -112.81613692	   1092.05700650	     11.76218295	     18.28195076	     10.93822197	     14.87272476	     37.62162255	    -35.39401467	    -45.00000000	    -45.00000000	  -2079.03398563	    985.40409481	    134.10968417	   -179.99999979	    730.53434591	     27.47759004	      8.81213529	    -20.40615657
      6.43000000	    -32.33579676	    -25.78629667	     36.10865273	   -140.62225510	    795.80362814	      8.92616806	      6.99192492	    -45.00000000	     38.87698544	    -45.00000000	    -35.30347561	   2060.41996510	  -2632.20305205	    148.30106184	   -112.49289055	   1092.03579995	     12.07179078	     18.22645884	     11.07345324	     14.86214623	     37.63572421	    -35.17328469	    -45.00000000	    -45.00000000	  -2079.27487954	    985.21041107	    134.11240723	   -179.99999979	    730.40619512	     28.24564589	      9.01828920	    -20.41385686
      6.44000000	    -32.04771484	    -26.40387868	     36.73386695	   -136.66034549	    794.30116522	      8.90728812	      6.86776714	    -45.00000000	     38.82147502	    -45.00000000	    -35.63739844	   2060.60321922	  -2632.46452764	    148.45227346	   -112.19357433	   1091.92614956	     12.46729437	     18.13723344	     11.26571554	     14.90177028	     37.63556133	    -35.05586071	    -45.00000000	    -45.00000000	  -2079.60596056	    984.94314550	    134.31579480	   -179.99999979	    730.28420393	     29.10416918	      9.15156005	    -20.41278947
